<svg xmlns="http://www.w3.org/2000/svg" width="1280" height="360" viewBox="0 0 1280 360" role="img" aria-labelledby="rg-title rg-desc"><title id="rg-title">ReadmeGlow — Drop any README.md and it becomes a stunning, designed web page.</title><desc id="rg-desc">Drop any README.md and it becomes a stunning, designed web page.</desc><style>@media (prefers-reduced-motion: no-preference){.rg-d1{animation:rg-a 19s ease-in-out infinite alternate}.rg-d2{animation:rg-b 23s ease-in-out infinite alternate}.rg-d3{animation:rg-a 27s ease-in-out infinite alternate-reverse}.rg-d4{animation:rg-b 21s ease-in-out infinite alternate-reverse}@keyframes rg-a{to{transform:translate(70px,26px)}}@keyframes rg-b{to{transform:translate(-80px,-22px)}}}</style><defs><clipPath id="rg-clip"><rect width="1280" height="360" rx="22"/></clipPath><radialGradient id="rg-b1" cx="0.5" cy="0.5" r="0.5"><stop offset="0" stop-color="#a78bfa" stop-opacity="0.62"/><stop offset="1" stop-color="#a78bfa" stop-opacity="0"/></radialGradient><radialGradient id="rg-b2" cx="0.5" cy="0.5" r="0.5"><stop offset="0" stop-color="#8fd6ff" stop-opacity="0.48"/><stop offset="1" stop-color="#8fd6ff" stop-opacity="0"/></radialGradient><radialGradient id="rg-b3" cx="0.5" cy="0.5" r="0.5"><stop offset="0" stop-color="#c4b5fd" stop-opacity="0.42"/><stop offset="1" stop-color="#c4b5fd" stop-opacity="0"/></radialGradient><radialGradient id="rg-b4" cx="0.5" cy="0.5" r="0.5"><stop offset="0" stop-color="#6ee7b7" stop-opacity="0.3"/><stop offset="1" stop-color="#6ee7b7" stop-opacity="0"/></radialGradient><linearGradient id="rg-tg" x1="0" y1="0" x2="0" y2="1"><stop offset="0" stop-color="#ffffff"/><stop offset="1" stop-color="#e0d6fd"/></linearGradient></defs><g clip-path="url(#rg-clip)"><rect x="0" y="0" width="1280" height="360" fill="#070713"/><circle class="rg-d1" cx="153.6" cy="18" r="537.6" fill="url(#rg-b1)"/><circle class="rg-d2" cx="1152" cy="54" r="486.4" fill="url(#rg-b2)"/><circle class="rg-d3" cx="793.6" cy="414" r="537.6" fill="url(#rg-b3)"/><circle class="rg-d4" cx="256" cy="388.8" r="358.4" fill="url(#rg-b4)"/><g fill="url(#rg-tg)"><path d="m332.6 177.1h-15.7v-70.7h27.5q8.8 0 15.2 2.7 6.4 2.6 9.9 7.8 3.4 5.2 3.4 13.1v1.5q0 7.8-3.4 12.9-3.5 5-9.7 7.6l17.8 25.1h-18.2l-15.3-22.5h-11.5v22.5m13.1-57.3h-13.1v22.4h13.1q3.4 0 6-1.3 2.5-1.4 3.9-4 1.4-2.5 1.4-5.9 0-3.3-1.4-5.9-1.4-2.5-3.9-3.9-2.6-1.4-6-1.4m62.6 59.1q-6.8 0-11.9-2.3-5.1-2.3-8.5-6.2-3.5-3.9-5.2-8.7-1.8-4.9-1.8-9.9v-2q0-5.2 1.8-10.1 1.7-4.8 5.1-8.7 3.4-3.8 8.4-6.1 5-2.2 11.5-2.2 8.4 0 14.2 3.8 5.8 3.7 8.9 9.8 3.1 6.1 3.1 13.3v5.2h-38.4q.3 2.3 1 4.2 1.4 3.6 4.3 5.5 2.8 1.9 7.5 1.9 4.2 0 6.9-1.6 2.7-1.6 3.6-4h14.1q-1.1 5.3-4.5 9.4-3.3 4.1-8.4 6.4-5.1 2.3-11.7 2.3m-12.7-32.8h23.7q-.3-2.2-1.1-4-1.3-3.4-3.9-5.2-2.7-1.8-6.6-1.8-4.1 0-6.8 1.9-2.8 1.8-4.3 5.2-.6 1.8-1 3.9m91.5 31h-12.2v-10.1q-.7 2-1.6 3.7-2.2 3.7-6 5.7-3.7 2-9.2 2-5.7 0-10-2-4.2-2-6.6-5.8-2.4-3.8-2.4-9.1 0-5.7 2.9-9.4 3-3.7 8.4-5.5 5.4-1.8 12.4-1.8h9.5v-.2q0-4-1.9-6-2-2-6.2-2-2.1 0-5.5.1-3.5.1-7.1.3-3.7.2-6.7.4v-13q2.2-.2 5.2-.4 3-.2 6.2-.3 3.1-.1 5.9-.1 8.1 0 13.6 2.3 5.5 2.3 8.4 7 2.9 4.6 2.9 11.9v32.3m-14.8-19.5v-4.2h-9.6q-4 0-6.2 2-2.2 1.9-2.2 5.3 0 3.1 2.2 5.1 2.2 2 6.2 2 2.6 0 4.6-.9 2.1-.9 3.5-3.1 1.3-2.3 1.5-6.2m48.6 21.2q-5.6 0-10.2-2-4.5-2-7.9-5.6-3.3-3.6-5.1-8.5-1.8-4.9-1.8-10.6v-2.2q0-5.6 1.7-10.5 1.7-4.9 4.9-8.6 3.2-3.7 7.7-5.8 4.5-2 10.1-2 6.3 0 10.9 2.6 3.7 2.2 6.1 6.1v-24.7h15.4v70.1h-12.2v-11.1q-.4 1-.9 2.1-2.9 5.3-7.7 8-4.8 2.7-11 2.7m3.8-12.8q3.6 0 6.5-1.6 2.9-1.6 4.7-4.7 1.8-3.1 1.8-7.4v-3.5q0-4.2-1.9-7.1-1.8-2.9-4.8-4.4-2.9-1.6-6.4-1.6-3.8 0-6.9 2-3 2-4.7 5.4-1.7 3.4-1.7 7.9 0 4.6 1.7 8 1.7 3.3 4.8 5.1 3.1 1.9 6.9 1.9m56.4 11.1h-15.4v-52.6h12.2v13.2q.5-2.2 1.1-4 2.1-5.4 6.1-8.1 4-2.7 9.9-2.7h.6q6 0 10 2.7 4 2.7 6.1 8.1.1.3.2.5 0-.2.2-.5 2-5.4 6-8.1 4-2.7 9.9-2.7h.7q5.9 0 10 2.7 4.1 2.7 6.2 8.1 2.1 5.4 2.1 13.4v30h-15.4v-30.8q0-4.3-2.2-7-2.3-2.7-6.4-2.7-4.1 0-6.5 2.7-2.4 2.8-2.4 7.3v30.5h-15.5v-30.8q0-4.3-2.2-7-2.3-2.7-6.3-2.7-4.2 0-6.6 2.7-2.4 2.8-2.4 7.3v30.5m102.1 1.8q-6.7 0-11.9-2.3-5.1-2.3-8.5-6.2-3.4-3.9-5.2-8.7-1.8-4.9-1.8-9.9v-2q0-5.2 1.8-10.1 1.8-4.8 5.2-8.7 3.3-3.8 8.4-6.1 5-2.2 11.4-2.2 8.5 0 14.3 3.8 5.8 3.7 8.9 9.8 3 6.1 3 13.3v5.2h-38.4q.3 2.3 1.1 4.2 1.3 3.6 4.2 5.5 2.9 1.9 7.5 1.9 4.2 0 6.9-1.6 2.7-1.6 3.7-4h14.1q-1.2 5.3-4.5 9.4-3.4 4.1-8.5 6.4-5.1 2.3-11.7 2.3m-12.7-32.8h23.7q-.2-2.2-1-4-1.4-3.4-4-5.2-2.6-1.8-6.6-1.8-4 0-6.8 1.9-2.8 1.8-4.2 5.2-.7 1.8-1.1 3.9m81.6 32.8q-9.4 0-16.4-3.1-7-3.1-11.6-8.4-4.5-5.3-6.7-11.7-2.2-6.4-2.2-12.9v-2.1q0-6.6 2.2-12.9 2.2-6.4 6.6-11.6 4.5-5.2 11.2-8.2 6.7-3.1 15.4-3.1 9.5 0 16.8 3.5 7.3 3.5 11.7 9.7 4.4 6.2 5.1 14.4h-15.8q-.5-3.9-3-6.8-2.4-2.8-6.2-4.5-3.8-1.6-8.6-1.6-4.6 0-8.2 1.6-3.6 1.7-6.2 4.6-2.5 3-3.8 7.1-1.3 4.1-1.3 9 0 5.1 1.4 9.2 1.4 4.2 4.1 7.2 2.7 3.1 6.6 4.7 4 1.6 8.9 1.6 6.6 0 11.4-2.7 3-1.7 4.9-4.1v-5.9h-18.3v-11.3h38.6v11.3h-5.8v11.9q-4.5 7.3-12.4 11.2-7.9 3.9-18.4 3.9m61.1-1.8h-15.5v-58.8h-6.2v-11.3h21.7v70.1m38.8 1.8q-6.9 0-12.3-2.1-5.4-2.2-9.1-5.9-3.7-3.8-5.6-8.6-1.9-4.9-1.9-10.3v-2.2q0-5.4 1.9-10.4 2-4.9 5.8-8.7 3.8-3.7 9.2-5.9 5.3-2.1 12-2.1 6.8 0 12.1 2.1 5.3 2.2 9.1 5.9 3.7 3.8 5.7 8.7 2.1 5 2.1 10.4v2.2q0 5.4-2 10.3-1.9 4.8-5.6 8.6-3.7 3.7-9 5.9-5.4 2.1-12.4 2.1m0-12.9q4.5 0 7.5-2 2.9-1.9 4.5-5.3 1.6-3.5 1.6-7.7 0-4.5-1.6-7.9-1.7-3.4-4.7-5.5-3-2-7.3-2-4.3 0-7.3 2-3.1 2.1-4.7 5.5-1.6 3.4-1.6 7.9 0 4.2 1.6 7.7 1.5 3.4 4.6 5.3 3 2 7.4 2m67.6 11.1h-21.4l-14.1-52.6h15.1l10 39.8h2l7.2-38.1h16.8l8.4 38.1h2l8.8-39.8h14.1l-12.7 52.6h-21.4l-7.8-34.7-7 34.7"/></g><g fill="#a6a9d4"><path d="m180.9 247.4h-6.3v-20.4h6.6q3 0 5.1 1.2 2.1 1.2 3.2 3.5 1.1 2.3 1.1 5.5 0 3.1-1.1 5.4-1.1 2.3-3.3 3.6-2.2 1.2-5.3 1.2m-3.7-18.1v15.8h3.6q2.4 0 4.1-1 1.6-.9 2.4-2.7.8-1.8.8-4.2 0-2.5-.8-4.2-.8-1.8-2.4-2.7-1.5-1-3.9-1h-3.8m19.7 18.1h-2.4v-15.3h2.3v2.4h.2q.4-1.2 1.5-1.9 1.1-.7 2.5-.7.2 0 .6 0 .4 0 .6 0v2.5q-.1 0-.5-.1-.5 0-1 0-1.1 0-1.9.4-.9.5-1.4 1.3-.5.8-.5 1.8v9.6m14.3.3q-2 0-3.6-1-1.6-1-2.5-2.7-.8-1.8-.8-4.2 0-2.4.8-4.1.9-1.8 2.5-2.8 1.6-1 3.6-1 2.1 0 3.7 1 1.6 1 2.4 2.8.9 1.7.9 4.1 0 2.4-.9 4.2-.8 1.7-2.4 2.7-1.6 1-3.7 1m0-2.2q1.6 0 2.6-.8 1-.8 1.4-2.1.5-1.3.5-2.8 0-1.5-.5-2.8-.4-1.3-1.4-2.1-1-.8-2.6-.8-1.5 0-2.5.8-1 .8-1.4 2.1-.5 1.3-.5 2.8 0 1.5.5 2.8.4 1.3 1.4 2.1 1 .8 2.5.8m13.1 7.6h-2.5v-21h2.4v2.4h.3q.2-.4.7-1 .4-.6 1.3-1.1.9-.5 2.4-.5 1.9 0 3.4 1 1.4.9 2.2 2.7.9 1.8.9 4.2 0 2.4-.9 4.2-.8 1.8-2.2 2.7-1.5 1-3.4 1-1.5 0-2.3-.5-.9-.5-1.4-1.1-.5-.7-.7-1.1h-.2v8.1m4.2-7.6q1.5 0 2.4-.8 1-.7 1.5-2 .5-1.3.5-2.9 0-1.6-.5-2.9-.5-1.3-1.5-2-.9-.8-2.4-.8-1.4 0-2.3.7-1 .7-1.5 2-.5 1.3-.5 3 0 1.7.5 3 .5 1.2 1.5 2 .9.7 2.3.7m22.6 2.2q-1.5 0-2.6-.5-1.2-.6-1.9-1.6-.7-1.1-.7-2.6 0-1.3.5-2.1.5-.8 1.4-1.3.9-.5 1.9-.7 1.1-.2 2.1-.4 1.4-.1 2.3-.2.8-.1 1.2-.4.5-.2.5-.8 0-1-.4-1.7-.4-.6-1.1-1-.7-.3-1.7-.3-1.1 0-1.9.3-.8.4-1.3.9-.5.5-.7 1l-2.4-.8q.6-1.4 1.6-2.1 1-.8 2.2-1.2 1.2-.3 2.4-.3.8 0 1.7.2 1 .2 1.9.7.9.6 1.5 1.6.6 1.1.6 2.9v10.1h-2.4v-2.1h-.2q-.2.5-.8 1.1-.6.6-1.5 1-.9.3-2.2.3m.4-2.1q1.4 0 2.3-.6 1-.5 1.5-1.4.5-.8.5-1.7v-2.2q-.2.2-.7.4-.5.1-1.2.2-.6.1-1.2.2-.6.1-1 .1-.9.1-1.6.4-.8.3-1.3.8-.4.5-.4 1.4 0 .8.4 1.3.4.5 1.1.8.7.3 1.6.3m13.5-7.4v9.2h-2.5v-15.3h2.4v2.8q.7-1.4 1.7-2.1 1.3-.9 3-.9 1.5 0 2.7.6 1.2.7 1.8 2 .7 1.2.7 3.2v9.7h-2.5v-9.5q0-1.8-.9-2.8-.9-1-2.5-1-1.1 0-2 .5-.9.5-1.4 1.4-.5.9-.5 2.2m13.8 14.7l.7-2.1.2.1q.8.1 1.4.1.6-.1 1.1-.6.5-.6.9-1.7l.4-1.2-5.8-15.4h2.7l3.2 9.1q.5 1.4.9 2.8.1.6.3 1.1.1-.5.3-1.1.4-1.4.9-2.8l3.2-9.1h2.7l-6.7 17.6q-.5 1.2-1.1 2-.7.8-1.5 1.1-.9.4-2 .4-.6 0-1.1-.1-.5-.1-.7-.2m26.8-5.5h-2.6v-20.4h7q2.3 0 3.9.8 1.5.8 2.3 2.3.7 1.4.7 3.2 0 1.8-.7 3.2-.8 1.4-2.3 2.2-.4.2-.8.3l4.6 8.4h-3l-4.2-7.9q-.3 0-.5 0h-4.4v7.9m0-18.1v7.9h4.3q1.6 0 2.5-.5 1-.5 1.5-1.3.4-.9.4-2.1 0-1.2-.4-2.1-.5-.9-1.5-1.4-.9-.5-2.6-.5h-4.2m28 18.1h-12.6v-20.4h12.4v2.3h-9.8v6.7h9.2v2.3h-9.2v6.8h10v2.3m5.3 0h-2.8l7.4-20.4h3l7.5 20.4h-2.7l-2.1-5.7h-8.4l-1.9 5.7m2.7-8h6.8l-1.5-4.1q-.4-1.1-.9-2.8-.4-1.4-1-3.4-.6 2-1 3.5-.6 1.7-.9 2.7l-1.5 4.1m21.9 8h-6.3v-20.4h6.6q3 0 5.1 1.2 2.1 1.2 3.2 3.5 1.1 2.3 1.1 5.5 0 3.1-1.1 5.4-1.1 2.3-3.3 3.6-2.2 1.2-5.3 1.2m-3.7-18.1v15.8h3.6q2.4 0 4.1-1 1.6-.9 2.4-2.7.8-1.8.8-4.2 0-2.5-.8-4.2-.8-1.8-2.4-2.7-1.5-1-3.9-1h-3.8m20 18.1h-2.4v-20.4h3.7l5 12.9q.2.4.4 1.1.2.7.5 1.5.2.8.4 1.5.1.3.2.5 0-.2.1-.4.2-.8.5-1.6.2-.8.5-1.5.2-.7.4-1.1l4.9-12.9h3.7v20.4h-2.5v-11.6q0-.7 0-1.5 0-.8 0-1.7 0-.9.1-1.8 0-.5 0-1-.2.6-.4 1.2-.3.9-.6 1.8-.3 1-.6 1.7-.3.8-.5 1.3l-4.5 11.6h-2.3l-4.6-11.6q-.2-.5-.5-1.3-.2-.7-.5-1.6-.3-.9-.7-1.9-.1-.6-.4-1.2.1.5.1.9 0 .9 0 1.8 0 .9 0 1.7 0 .9 0 1.6v11.6m35.4 0h-12.5v-20.4h12.4v2.3h-9.8v6.7h9.1v2.3h-9.1v6.8h9.9v2.3m5.9.2q-.8 0-1.3-.6-.6-.5-.6-1.3 0-.7.6-1.3.5-.5 1.3-.5.7 0 1.3.5.5.6.5 1.3 0 .8-.5 1.3-.6.6-1.3.6m8.6-.2h-2.4v-15.3h2.4v2.8q.3-.8.8-1.4.6-.9 1.6-1.3.9-.4 1.8-.4 1.7 0 2.8 1.1.8.8 1.1 2 .3-.7.8-1.3.8-.9 1.8-1.3 1-.5 2.3-.5 1.3 0 2.4.6 1.1.6 1.7 1.7.7 1.2.7 3v10.3h-2.5v-10.3q0-1.6-.9-2.3-1-.7-2.2-.7-1 0-1.8.4-.7.4-1.1 1.2-.4.7-.4 1.7v10h-2.5v-10.5q0-1.3-.8-2.1-.9-.7-2.2-.7-.9 0-1.6.4-.8.4-1.3 1.2-.5.8-.5 2.1v9.6m27.8.3q-1.9 0-3.3-1-1.5-.9-2.3-2.7-.9-1.8-.9-4.2 0-2.4.9-4.2.8-1.8 2.3-2.7 1.4-1 3.3-1 1.5 0 2.4.5.9.5 1.3 1.1.5.6.8 1h.1v-7.5h2.5v20.4h-2.4v-2.4h-.2q-.3.4-.8 1.1-.5.6-1.3 1.1-.9.5-2.4.5m.4-2.2q1.4 0 2.3-.7 1-.8 1.5-2 .5-1.3.5-3 0-1.7-.5-3-.5-1.3-1.5-2-.9-.7-2.3-.7-1.5 0-2.4.8-1 .7-1.5 2-.5 1.3-.5 2.9 0 1.6.5 2.9.5 1.3 1.5 2 1 .8 2.4.8m23.2 2.2q-1.5 0-2.6-.5-1.2-.6-1.9-1.6-.7-1.1-.7-2.6 0-1.3.5-2.1.5-.8 1.4-1.3.9-.5 1.9-.7 1.1-.2 2.1-.4 1.4-.1 2.3-.2.8-.1 1.2-.4.4-.2.4-.8 0-1-.3-1.7-.4-.6-1.1-1-.7-.3-1.8-.3-1 0-1.8.3-.8.4-1.3.9-.5.5-.7 1l-2.4-.8q.6-1.4 1.6-2.1 1-.8 2.2-1.2 1.2-.3 2.4-.3.7 0 1.7.2 1 .2 1.9.7.9.6 1.5 1.6.6 1.1.6 2.9v10.1h-2.4v-2.1h-.2q-.2.5-.8 1.1-.6.6-1.5 1-.9.3-2.2.3m.4-2.1q1.4 0 2.3-.6 1-.5 1.5-1.4.4-.8.4-1.7v-2.2q-.1.2-.6.4-.5.1-1.2.2-.6.1-1.2.2-.6.1-1 .1-.9.1-1.6.4-.8.3-1.3.8-.4.5-.4 1.4 0 .8.4 1.3.4.5 1.1.8.7.3 1.6.3m13.5-7.4v9.2h-2.5v-15.3h2.4v2.8q.6-1.4 1.7-2.1 1.2-.9 3-.9 1.5 0 2.7.6 1.2.7 1.8 2 .7 1.2.7 3.2v9.7h-2.5v-9.5q0-1.8-.9-2.8-1-1-2.6-1-1 0-1.9.5-.9.5-1.4 1.4-.5.9-.5 2.2m19.8 9.5q-1.9 0-3.4-1-1.4-.9-2.2-2.7-.9-1.8-.9-4.2 0-2.4.9-4.2.8-1.8 2.3-2.7 1.4-1 3.3-1 1.5 0 2.4.5.9.5 1.3 1.1.5.6.7 1h.2v-7.5h2.5v20.4h-2.4v-2.4h-.3q-.2.4-.7 1.1-.5.6-1.4 1.1-.8.5-2.3.5m.4-2.2q1.4 0 2.3-.7 1-.8 1.5-2 .5-1.3.5-3 0-1.7-.5-3-.5-1.3-1.5-2-.9-.7-2.3-.7-1.5 0-2.4.8-1 .7-1.5 2-.5 1.3-.5 2.9 0 1.6.5 2.9.5 1.3 1.5 2 .9.8 2.4.8m21.4 1.9h-2.5v-15.3h2.5v15.3m-1.3-17.8q-.7 0-1.2-.5-.5-.5-.5-1.1 0-.7.5-1.2.5-.5 1.2-.5.7 0 1.3.5.5.5.5 1.2 0 .6-.5 1.1-.6.5-1.3.5m8.4 2.5h3.2v2.1h-3.2v9.2q0 1 .5 1.5.4.5 1.3.5.3 0 .6-.1.4 0 .7-.1l.5 2.1q-.4.1-.9.2-.4.1-.9.1-2 0-3.1-1.1-1.1-1-1.1-2.9v-9.4h-2.3v-2.1h2.3v-3.6h2.4v3.6m21.3 15.6q-1.4 0-2.3-.5-.9-.5-1.4-1.1-.5-.7-.7-1.1h-.3v2.4h-2.4v-20.4h2.5v7.5h.2q.2-.4.7-1 .4-.6 1.3-1.1.9-.5 2.4-.5 1.9 0 3.4 1 1.4.9 2.2 2.7.9 1.8.9 4.2 0 2.4-.9 4.2-.8 1.8-2.2 2.7-1.5 1-3.4 1m-.4-2.2q1.5 0 2.4-.8 1-.7 1.5-2 .5-1.3.5-2.9 0-1.6-.5-2.9-.5-1.3-1.5-2-.9-.8-2.4-.8-1.4 0-2.3.7-1 .7-1.5 2-.5 1.3-.5 3 0 1.7.5 3 .5 1.2 1.5 2 1 .7 2.3.7m16.9 2.2q-2.2 0-3.8-1-1.7-1-2.5-2.7-.9-1.8-.9-4.1 0-2.4.9-4.2.8-1.8 2.4-2.8 1.5-1 3.6-1 1.2 0 2.4.4 1.2.4 2.1 1.3 1 .9 1.6 2.4.5 1.4.5 3.6v1h-11q.1 1.5.6 2.5.6 1.2 1.6 1.8 1.1.6 2.5.6.9 0 1.6-.2.8-.3 1.3-.8.5-.5.8-1.3l2.4.6q-.4 1.2-1.2 2.1-.8.8-2.1 1.3-1.3.5-2.8.5m-4.7-9.2h8.5q0-1-.4-1.9-.5-1.2-1.4-1.8-.9-.7-2.3-.7-1.4 0-2.4.7-1 .7-1.5 1.7-.4 1-.5 2m20.8 9.2q-2.1 0-3.6-1-1.6-1-2.5-2.7-.9-1.8-.9-4.2 0-2.4.9-4.1.9-1.8 2.5-2.8 1.5-1 3.6-1 1.1 0 2.1.3 1 .3 1.8.8.8.6 1.4 1.3.6.8.9 1.8l-2.4.7q-.1-.6-.5-1.1-.3-.5-.8-.8-.5-.4-1.1-.6-.7-.2-1.4-.2-1.5 0-2.5.8-1 .8-1.5 2.1-.5 1.3-.5 2.8 0 1.5.5 2.8.5 1.3 1.5 2.1 1 .8 2.5.8.8 0 1.4-.2.6-.2 1.1-.6.5-.3.9-.9.3-.5.5-1.1l2.3.7q-.3 1-.9 1.8-.5.8-1.4 1.4-.8.5-1.8.8-1 .3-2.1.3m16 0q-2.1 0-3.7-1-1.5-1-2.4-2.7-.9-1.8-.9-4.2 0-2.4.9-4.1.9-1.8 2.4-2.8 1.6-1 3.7-1 2.1 0 3.7 1 1.5 1 2.4 2.8.9 1.7.9 4.1 0 2.4-.9 4.2-.9 1.7-2.4 2.7-1.6 1-3.7 1m0-2.2q1.5 0 2.5-.8 1-.8 1.5-2.1.5-1.3.5-2.8 0-1.5-.5-2.8-.5-1.3-1.5-2.1-1-.8-2.5-.8-1.5 0-2.5.8-1 .8-1.5 2.1-.5 1.3-.5 2.8 0 1.5.5 2.8.5 1.3 1.5 2.1 1 .8 2.5.8m13 1.9h-2.4v-15.3h2.4v2.8q.3-.8.8-1.4.6-.9 1.6-1.3.9-.4 1.8-.4 1.7 0 2.8 1.1.8.8 1.1 2 .3-.7.8-1.3.8-.9 1.8-1.3 1-.5 2.3-.5 1.3 0 2.4.6 1.1.6 1.7 1.7.7 1.2.7 3v10.3h-2.5v-10.3q0-1.6-.9-2.3-1-.7-2.2-.7-1 0-1.8.4-.7.4-1.1 1.2-.4.7-.4 1.7v10h-2.5v-10.5q0-1.3-.8-2.1-.9-.7-2.2-.7-.8 0-1.6.4-.8.4-1.3 1.2-.5.8-.5 2.1v9.6m28.5.3q-2.2 0-3.8-1-1.6-1-2.5-2.7-.8-1.8-.8-4.1 0-2.4.8-4.2.8-1.8 2.4-2.8 1.5-1 3.6-1 1.2 0 2.4.4 1.2.4 2.2 1.3.9.9 1.5 2.4.6 1.4.6 3.6v1h-11.1q.1 1.5.6 2.5.6 1.2 1.7 1.8 1 .6 2.4.6.9 0 1.7-.2.7-.3 1.2-.8.6-.5.9-1.3l2.3.6q-.3 1.2-1.2 2.1-.8.8-2.1 1.3-1.2.5-2.8.5m-4.6-9.2h8.5q-.1-1-.5-1.9-.4-1.2-1.4-1.8-.9-.7-2.3-.7-1.4 0-2.3.7-1 .7-1.5 1.7-.5 1-.5 2m19.7 9.2q-1.6 0-2.8-.4-1.2-.5-2-1.4-.8-.9-1.1-2.2l2.4-.6q.3 1.3 1.2 1.9.9.6 2.3.6 1.6 0 2.5-.7 1-.7 1-1.7 0-.7-.6-1.3-.5-.5-1.7-.8l-2.5-.6q-2.1-.5-3.1-1.5-1-1-1-2.6 0-1.3.7-2.4.8-1 2-1.5 1.3-.6 3-.6 1.5 0 2.6.5 1.1.5 1.8 1.3.7.8 1.1 1.9l-2.3.6q-.3-.9-1-1.5-.8-.7-2.2-.7-1.4 0-2.3.6-.9.7-.9 1.6 0 .9.6 1.4.6.5 2 .8l2.3.6q2 .4 3 1.5 1 1 1 2.6 0 1.3-.7 2.4-.8 1-2.1 1.6-1.4.6-3.2.6m21.7 0q-1.4 0-2.6-.5-1.2-.6-1.9-1.6-.7-1.1-.7-2.6 0-1.3.6-2.1.5-.8 1.3-1.3.9-.5 2-.7 1-.2 2.1-.4 1.4-.1 2.2-.2.9-.1 1.3-.4.4-.2.4-.8 0-1-.3-1.7-.4-.6-1.1-1-.7-.3-1.8-.3-1.1 0-1.9.3-.7.4-1.2.9-.5.5-.8 1l-2.3-.8q.6-1.4 1.6-2.1 1-.8 2.2-1.2 1.2-.3 2.3-.3.8 0 1.8.2 1 .2 1.9.7.9.6 1.5 1.6.6 1.1.6 2.9v10.1h-2.5v-2.1h-.1q-.3.5-.8 1.1-.6.6-1.5 1-1 .3-2.3.3m.5-2.1q1.3 0 2.3-.6.9-.5 1.4-1.4.5-.8.5-1.7v-2.2q-.1.2-.6.4-.6.1-1.2.2-.7.1-1.3.2-.6.1-.9.1-.9.1-1.7.4-.8.3-1.2.8-.5.5-.5 1.4 0 .8.4 1.3.4.5 1.1.8.8.3 1.7.3m24.1 2.1q-1.6 0-2.8-.4-1.3-.5-2.1-1.4-.7-.9-1-2.2l2.3-.6q.3 1.3 1.3 1.9.9.6 2.2.6 1.6 0 2.6-.7.9-.7.9-1.7 0-.7-.5-1.3-.6-.5-1.7-.8l-2.6-.6q-2-.5-3-1.5-1.1-1-1.1-2.6 0-1.3.8-2.4.7-1 2-1.5 1.3-.6 2.9-.6 1.6 0 2.7.5 1.1.5 1.8 1.3.7.8 1 1.9l-2.2.6q-.3-.9-1.1-1.5-.7-.7-2.2-.7-1.3 0-2.3.6-.9.7-.9 1.6 0 .9.6 1.4.7.5 2 .8l2.3.6q2.1.4 3.1 1.5 1 1 1 2.6 0 1.3-.8 2.4-.7 1-2.1 1.6-1.3.6-3.1.6m12.4-15.6h3.2v2.1h-3.2v9.2q0 1 .4 1.5.4.5 1.4.5.3 0 .6-.1.4 0 .7-.1l.5 2.1q-.4.1-.9.2-.5.1-.9.1-2 0-3.1-1.1-1.1-1-1.1-2.9v-9.4h-2.3v-2.1h2.3v-3.6h2.4v3.6m11.5 15.5q-1.6 0-2.7-.7-1.2-.6-1.8-1.9-.7-1.3-.7-3.2v-9.7h2.5v9.5q0 1.8.9 2.8.9 1 2.5 1 1.1 0 2-.5.9-.5 1.4-1.4.5-.9.5-2.2v-9.2h2.4v15.3h-2.3v-2.9q-.7 1.5-1.7 2.2-1.3.9-3 .9m13.8-9.4v9.2h-2.4v-15.3h2.3v2.8q.7-1.4 1.7-2.1 1.3-.9 3-.9 1.6 0 2.7.6 1.2.7 1.8 2 .7 1.2.7 3.2v9.7h-2.5v-9.5q0-1.8-.9-2.8-.9-1-2.5-1-1.1 0-2 .5-.9.5-1.4 1.4-.5.9-.5 2.2m16.6 0v9.2h-2.5v-15.3h2.4v2.8q.6-1.4 1.6-2.1 1.3-.9 3.1-.9 1.5 0 2.7.6 1.1.7 1.8 2 .6 1.2.6 3.2v9.7h-2.4v-9.5q0-1.8-1-2.8-.9-1-2.5-1-1.1 0-1.9.5-.9.5-1.4 1.4-.5.9-.5 2.2m16.5 9.2h-2.5v-15.3h2.5v15.3m-1.2-17.8q-.7 0-1.2-.5-.5-.5-.5-1.1 0-.7.5-1.2.5-.5 1.2-.5.7 0 1.2.5.5.5.5 1.2 0 .6-.5 1.1-.5.5-1.2.5m8 8.6v9.2h-2.5v-15.3h2.4v2.8q.6-1.4 1.7-2.1 1.2-.9 3-.9 1.5 0 2.7.6 1.2.7 1.8 2 .7 1.2.7 3.2v9.7h-2.5v-9.5q0-1.8-.9-2.8-1-1-2.6-1-1 0-1.9.5-.9.5-1.4 1.4-.5.9-.5 2.2m20.3 15.2q-1.7 0-3-.4-1.2-.4-2-1.1-.8-.8-1.3-1.6l2-1.3q.3.5.8 1 .5.5 1.3.9.8.4 2.2.4 1.8 0 3-.9 1.2-.9 1.2-2.8v-3h-.3q-.2.4-.7 1-.5.6-1.4 1.1-.8.4-2.3.4-1.8 0-3.3-.8-1.5-.9-2.3-2.6-.9-1.6-.9-4 0-2.4.9-4.1.8-1.8 2.3-2.7 1.4-1 3.3-1 1.5 0 2.4.5.9.5 1.4 1.1.4.6.7 1h.2v-2.4h2.4v15.7q0 2-.9 3.2-.9 1.3-2.4 1.8-1.5.6-3.3.6m-.1-8.4q1.4 0 2.3-.7 1-.6 1.5-1.8.5-1.2.5-2.9 0-1.6-.5-2.8-.5-1.3-1.4-2-1-.7-2.4-.7-1.5 0-2.4.8-1 .7-1.5 1.9-.5 1.3-.5 2.8 0 1.6.5 2.8.5 1.2 1.5 1.9 1 .7 2.4.7m12.5 7.3h-1.9l1.2-7.8h2.9l-2.2 7.8m20.2-4.6q-1.9 0-3.4-1-1.4-.9-2.2-2.7-.9-1.8-.9-4.2 0-2.4.9-4.2.8-1.8 2.3-2.7 1.4-1 3.3-1 1.5 0 2.4.5.9.5 1.3 1.1.5.6.8 1h.1v-7.5h2.5v20.4h-2.4v-2.4h-.2q-.3.4-.8 1.1-.5.6-1.3 1.1-.9.5-2.4.5m.4-2.2q1.4 0 2.3-.7 1-.8 1.5-2 .5-1.3.5-3 0-1.7-.5-3-.5-1.3-1.5-2-.9-.7-2.3-.7-1.5 0-2.4.8-1 .7-1.5 2-.5 1.3-.5 2.9 0 1.6.5 2.9.5 1.3 1.5 2 1 .8 2.4.8m17.5 2.2q-2.3 0-3.9-1-1.6-1-2.4-2.7-.9-1.8-.9-4.1 0-2.4.8-4.2.9-1.8 2.4-2.8 1.6-1 3.7-1 1.2 0 2.4.4 1.1.4 2.1 1.3 1 .9 1.6 2.4.5 1.4.5 3.6v1h-11q0 1.5.6 2.5.6 1.2 1.6 1.8 1.1.6 2.5.6.9 0 1.6-.2.7-.3 1.3-.8.5-.5.8-1.3l2.4.6q-.4 1.2-1.2 2.1-.9.8-2.1 1.3-1.3.5-2.8.5m-4.7-9.2h8.5q-.1-1-.4-1.9-.5-1.2-1.4-1.8-1-.7-2.3-.7-1.4 0-2.4.7-1 .7-1.5 1.7-.4 1-.5 2m19.7 9.2q-1.5 0-2.7-.4-1.3-.5-2.1-1.4-.8-.9-1-2.2l2.3-.6q.3 1.3 1.2 1.9 1 .6 2.3.6 1.6 0 2.6-.7.9-.7.9-1.7 0-.7-.5-1.3-.6-.5-1.7-.8l-2.6-.6q-2-.5-3.1-1.5-1-1-1-2.6 0-1.3.8-2.4.7-1 2-1.5 1.3-.6 2.9-.6 1.6 0 2.7.5 1.1.5 1.8 1.3.6.8 1 1.9l-2.2.6q-.4-.9-1.1-1.5-.7-.7-2.2-.7-1.4 0-2.3.6-.9.7-.9 1.6 0 .9.6 1.4.7.5 2 .8l2.3.6q2.1.4 3.1 1.5 1 1 1 2.6 0 1.3-.8 2.4-.7 1-2.1 1.6-1.4.6-3.2.6m12.1-.3h-2.5v-15.3h2.5v15.3m-1.2-17.8q-.7 0-1.2-.5-.5-.5-.5-1.1 0-.7.5-1.2.5-.5 1.2-.5.7 0 1.2.5.5.5.5 1.2 0 .6-.5 1.1-.5.5-1.2.5m11.7 23.8q-1.7 0-2.9-.4-1.3-.4-2.1-1.1-.8-.8-1.3-1.6l2-1.3q.3.5.8 1 .5.5 1.3.9.9.4 2.2.4 1.8 0 3-.9 1.2-.9 1.2-2.8v-3h-.2q-.3.4-.8 1-.4.6-1.3 1.1-.9.4-2.4.4-1.8 0-3.3-.8-1.4-.9-2.3-2.6-.8-1.6-.8-4 0-2.4.8-4.1.8-1.8 2.3-2.7 1.5-1 3.4-1 1.5 0 2.3.5.9.5 1.4 1.1.5.6.7 1h.3v-2.4h2.4v15.7q0 2-.9 3.2-.9 1.3-2.4 1.8-1.5.6-3.4.6m-.1-8.4q1.4 0 2.4-.7.9-.6 1.4-1.8.5-1.2.5-2.9 0-1.6-.5-2.8-.4-1.3-1.4-2-1-.7-2.4-.7-1.4 0-2.4.8-1 .7-1.4 1.9-.5 1.3-.5 2.8 0 1.6.5 2.8.5 1.2 1.4 1.9 1 .7 2.4.7m13.5-6.8v9.2h-2.4v-15.3h2.4v2.8q.6-1.4 1.6-2.1 1.3-.9 3-.9 1.6 0 2.7.6 1.2.7 1.9 2 .6 1.2.6 3.2v9.7h-2.5v-9.5q0-1.8-.9-2.8-.9-1-2.5-1-1.1 0-2 .5-.8.5-1.3 1.4-.6.9-.6 2.2m20.6 9.5q-2.3 0-3.9-1-1.6-1-2.4-2.7-.9-1.8-.9-4.1 0-2.4.8-4.2.9-1.8 2.4-2.8 1.6-1 3.7-1 1.2 0 2.4.4 1.1.4 2.1 1.3 1 .9 1.6 2.4.5 1.4.5 3.6v1h-11q0 1.5.6 2.5.6 1.2 1.6 1.8 1.1.6 2.5.6.9 0 1.6-.2.7-.3 1.3-.8.5-.5.8-1.3l2.4.6q-.4 1.2-1.2 2.1-.9.8-2.1 1.3-1.3.5-2.8.5m-4.7-9.2h8.5q-.1-1-.4-1.9-.5-1.2-1.4-1.8-1-.7-2.3-.7-1.4 0-2.4.7-1 .7-1.5 1.7-.4 1-.5 2m20.3 9.2q-1.9 0-3.4-1-1.4-.9-2.3-2.7-.8-1.8-.8-4.2 0-2.4.8-4.2.9-1.8 2.3-2.7 1.5-1 3.4-1 1.5 0 2.4.5.8.5 1.3 1.1.5.6.7 1h.2v-7.5h2.5v20.4h-2.4v-2.4h-.3q-.2.4-.7 1.1-.5.6-1.4 1.1-.9.5-2.3.5m.4-2.2q1.3 0 2.3-.7 1-.8 1.5-2 .4-1.3.4-3 0-1.7-.4-3-.5-1.3-1.5-2-.9-.7-2.3-.7-1.5 0-2.5.8-.9.7-1.4 2-.5 1.3-.5 2.9 0 1.6.5 2.9.5 1.3 1.5 2 .9.8 2.4.8m24.8 1.9h-2.5l-4.6-15.3h2.6l1.8 6.7q.4 1.3.9 3.1.3 1.3.6 2.8.3-1.5.6-2.7.5-1.8.9-3.2l1.8-6.7h2.6l1.8 6.7q.4 1.4.8 3.1.3 1.3.6 2.8.3-1.5.7-2.8.4-1.7.8-3.1l1.9-6.7h2.6l-4.7 15.3h-2.4l-2-6.9q-.3-1.1-.6-2.2-.3-1.1-.5-2.2-.2-.6-.3-1.2-.2.6-.3 1.2-.3 1.1-.6 2.2-.3 1.1-.6 2.2l-1.9 6.9m23.4.3q-2.2 0-3.8-1-1.6-1-2.5-2.7-.9-1.8-.9-4.1 0-2.4.9-4.2.8-1.8 2.4-2.8 1.5-1 3.6-1 1.2 0 2.4.4 1.2.4 2.2 1.3.9.9 1.5 2.4.6 1.4.6 3.6v1h-11.1q.1 1.5.6 2.5.6 1.2 1.7 1.8 1 .6 2.4.6.9 0 1.7-.2.7-.3 1.2-.8.6-.5.9-1.3l2.3.6q-.3 1.2-1.2 2.1-.8.8-2.1 1.3-1.2.5-2.8.5m-4.7-9.2h8.6q-.1-1-.5-1.9-.4-1.2-1.4-1.8-.9-.7-2.3-.7-1.4 0-2.3.7-1 .7-1.5 1.7-.5 1-.6 2m21.7 9.2q-1.4 0-2.3-.5-.9-.5-1.4-1.1-.5-.7-.7-1.1h-.3v2.4h-2.4v-20.4h2.5v7.5h.2q.2-.4.7-1 .5-.6 1.3-1.1.9-.5 2.4-.5 1.9 0 3.4 1 1.4.9 2.2 2.7.9 1.8.9 4.2 0 2.4-.8 4.2-.9 1.8-2.3 2.7-1.5 1-3.4 1m-.4-2.2q1.5 0 2.4-.8 1-.7 1.5-2 .5-1.3.5-2.9 0-1.6-.5-2.9-.5-1.3-1.4-2-1-.8-2.5-.8-1.4 0-2.3.7-1 .7-1.5 2-.5 1.3-.5 3 0 1.7.5 3 .5 1.2 1.5 2 1 .7 2.3.7m20.8 7.6h-2.5v-21h2.4v2.4h.3q.2-.4.7-1 .5-.6 1.3-1.1.9-.5 2.4-.5 1.9 0 3.4 1 1.4.9 2.3 2.7.8 1.8.8 4.2 0 2.4-.8 4.2-.8 1.8-2.3 2.7-1.5 1-3.4 1-1.4 0-2.3-.5-.9-.5-1.4-1.1-.5-.7-.7-1.1h-.2v8.1m4.3-7.6q1.4 0 2.4-.8.9-.7 1.4-2 .5-1.3.5-2.9 0-1.6-.5-2.9-.5-1.3-1.4-2-1-.8-2.4-.8-1.5 0-2.4.7-1 .7-1.5 2-.4 1.3-.4 3 0 1.7.5 3 .4 1.2 1.4 2 1 .7 2.4.7m14.7 2.2q-1.5 0-2.7-.5-1.2-.6-1.9-1.6-.7-1.1-.7-2.6 0-1.3.6-2.1.5-.8 1.4-1.3.8-.5 1.9-.7 1-.2 2.1-.4 1.4-.1 2.2-.2.9-.1 1.3-.4.4-.2.4-.8 0-1-.3-1.7-.4-.6-1.1-1-.7-.3-1.8-.3-1.1 0-1.9.3-.7.4-1.2.9-.5.5-.8 1l-2.3-.8q.6-1.4 1.6-2.1 1-.8 2.2-1.2 1.2-.3 2.3-.3.8 0 1.8.2 1 .2 1.9.7.9.6 1.5 1.6.6 1.1.6 2.9v10.1h-2.4v-2.1h-.2q-.3.5-.8 1.1-.6.6-1.5 1-.9.3-2.2.3m.4-2.1q1.3 0 2.3-.6.9-.5 1.4-1.4.5-.8.5-1.7v-2.2q-.1.2-.6.4-.5.1-1.2.2-.6.1-1.3.2-.6.1-.9.1-.9.1-1.7.4-.8.3-1.2.8-.5.5-.5 1.4 0 .8.4 1.3.4.5 1.2.8.7.3 1.6.3m17.2 7.8q-1.7 0-2.9-.4-1.3-.4-2.1-1.1-.8-.8-1.3-1.6l2-1.3q.3.5.8 1 .5.5 1.3.9.9.4 2.2.4 1.8 0 3-.9 1.2-.9 1.2-2.8v-3h-.2q-.3.4-.8 1-.4.6-1.3 1.1-.9.4-2.4.4-1.8 0-3.3-.8-1.4-.9-2.3-2.6-.8-1.6-.8-4 0-2.4.8-4.1.8-1.8 2.3-2.7 1.5-1 3.4-1 1.4 0 2.3.5.9.5 1.4 1.1.5.6.7 1h.3v-2.4h2.3v15.7q0 2-.8 3.2-.9 1.3-2.4 1.8-1.6.6-3.4.6m-.1-8.4q1.4 0 2.4-.7.9-.6 1.4-1.8.5-1.2.5-2.9 0-1.6-.5-2.8-.5-1.3-1.4-2-1-.7-2.4-.7-1.4 0-2.4.8-1 .7-1.5 1.9-.4 1.3-.4 2.8 0 1.6.5 2.8.4 1.2 1.4 1.9 1 .7 2.4.7m17.5 2.7q-2.2 0-3.8-1-1.6-1-2.5-2.7-.9-1.8-.9-4.1 0-2.4.9-4.2.8-1.8 2.4-2.8 1.5-1 3.6-1 1.2 0 2.4.4 1.2.4 2.2 1.3.9.9 1.5 2.4.6 1.4.6 3.6v1h-11.1q.1 1.5.6 2.5.6 1.2 1.7 1.8 1 .6 2.4.6.9 0 1.6-.2.8-.3 1.3-.8.6-.5.8-1.3l2.4.6q-.3 1.2-1.2 2.1-.8.8-2.1 1.3-1.2.5-2.8.5m-4.7-9.2h8.6q-.1-1-.5-1.9-.5-1.2-1.4-1.8-.9-.7-2.3-.7-1.4 0-2.4.7-.9.7-1.5 1.7-.4 1-.5 2m16.5 9.1q-.8 0-1.3-.6-.6-.5-.6-1.3 0-.7.6-1.3.5-.5 1.3-.5.7 0 1.3.5.5.6.5 1.3 0 .8-.5 1.3-.6.6-1.3.6"/></g><rect x="0.8" y="0.8" width="1278.5" height="358.5" rx="21.3" fill="none" stroke="#2a2b55" stroke-width="1.5" stroke-opacity="0.9"/></g></svg>